<?xml version="1.0" encoding="UTF-8" standalone="no"?>
<!-- Created with Inkscape (http://www.inkscape.org/) -->

<svg
   xmlns:dc="http://purl.org/dc/elements/1.1/"
   xmlns:cc="http://creativecommons.org/ns#"
   xmlns:rdf="http://www.w3.org/1999/02/22-rdf-syntax-ns#"
   xmlns:svg="http://www.w3.org/2000/svg"
   xmlns="http://www.w3.org/2000/svg"
   xmlns:xlink="http://www.w3.org/1999/xlink"
   xmlns:sodipodi="http://sodipodi.sourceforge.net/DTD/sodipodi-0.dtd"
   xmlns:inkscape="http://www.inkscape.org/namespaces/inkscape"
   width="256"
   height="256"
   id="svg2"
   version="1.1"
   inkscape:version="0.48.3.1 r9886"
   sodipodi:docname="logo.svg">
  <defs
     id="defs4">
    <linearGradient
       id="linearGradient3922">
      <stop
         style="stop-color:#000080;stop-opacity:1;"
         offset="0"
         id="stop3924" />
      <stop
         style="stop-color:#00a980;stop-opacity:1;"
         offset="1"
         id="stop3926" />
    </linearGradient>
    <linearGradient
       id="linearGradient3893">
      <stop
         style="stop-color:#0000a0;stop-opacity:1;"
         offset="0"
         id="stop3895" />
      <stop
         style="stop-color:#0000fa;stop-opacity:1;"
         offset="1"
         id="stop3897" />
    </linearGradient>
    <filter
       inkscape:collect="always"
       id="filter3832">
      <feGaussianBlur
         inkscape:collect="always"
         stdDeviation="5.0000002"
         id="feGaussianBlur3834" />
    </filter>
    <filter
       id="filter3887"
       inkscape:label="Glow"
       inkscape:menu="Shadows and Glows"
       inkscape:menu-tooltip="Glow of object's own color at the edges"
       color-interpolation-filters="sRGB">
      <feGaussianBlur
         id="feGaussianBlur3889"
         stdDeviation="5"
         result="result91" />
      <feComposite
         id="feComposite3891"
         in2="result91"
         in="SourceGraphic"
         operator="over" />
    </filter>
    <linearGradient
       inkscape:collect="always"
       xlink:href="#linearGradient3922"
       id="linearGradient3930"
       x1="-423"
       y1="156"
       x2="-172"
       y2="-88"
       gradientUnits="userSpaceOnUse"
       gradientTransform="translate(427,890.36218)" />
  </defs>
  <sodipodi:namedview
     id="base"
     pagecolor="#ffffff"
     bordercolor="#666666"
     borderopacity="1.0"
     inkscape:pageopacity="0.0"
     inkscape:pageshadow="2"
     inkscape:zoom="1"
     inkscape:cx="210.40724"
     inkscape:cy="208"
     inkscape:document-units="px"
     inkscape:current-layer="layer1"
     showgrid="false"
     inkscape:window-width="1920"
     inkscape:window-height="1033"
     inkscape:window-x="-2"
     inkscape:window-y="-3"
     inkscape:window-maximized="1" />
  <metadata
     id="metadata7">
    <rdf:RDF>
      <cc:Work
         rdf:about="">
        <dc:format>image/svg+xml</dc:format>
        <dc:type
           rdf:resource="http://purl.org/dc/dcmitype/StillImage" />
        <dc:title></dc:title>
      </cc:Work>
    </rdf:RDF>
  </metadata>
  <g
     inkscape:label="Ebene 1"
     inkscape:groupmode="layer"
     id="layer1"
     transform="translate(0,-796.36218)">
    <g
       id="g3936"
       inkscape:export-filename="/home/leszek/Downloads/work/sailfish/harbour-13375p34k/harbour-13375p34k.png"
       inkscape:export-xdpi="30.959999"
       inkscape:export-ydpi="30.959999">
      <path
         inkscape:connector-curvature="0"
         id="path3903"
         d="m 128,799.36218 c -69.03559,0 -125,55.96441 -125,125 0,1.02632 0.00705,2.0421 0.03125,3.0625 10e-4,0.0521 -10e-4,0.10421 0,0.15625 C 3.02825,927.64463 3,927.70383 3,927.76843 l 0,118.18747 c 0,1.8822 1.3033,3.4063 2.9375,3.4063 l 119.125,0 c 0.0756,0 0.14572,-0.022 0.21875,-0.031 0.90648,0.019 1.80762,0.031 2.71875,0.031 1.07868,0 2.14661,-0 3.21875,-0.031 C 198.76326,1047.6197 253,992.3191 253,924.36218 c 0,-1.02632 -0.007,-2.0421 -0.0312,-3.0625 -10e-4,-0.0521 0.001,-0.10421 0,-0.15625 0.003,-0.0637 0.0312,-0.1229 0.0312,-0.1875 l 0,-118.1875 c 0,-1.88216 -1.3033,-3.40625 -2.9375,-3.40625 l -119.125,0 c -0.0756,0 -0.14572,0.0214 -0.21875,0.0312 -0.90648,-0.0194 -1.80762,-0.0312 -2.71875,-0.0312 z"
         style="fill:url(#linearGradient3930);fill-opacity:1;fill-rule:nonzero;stroke:none" />
      <g
         id="g3818"
         style="fill:#008ba0;fill-opacity:1;opacity:0.50000000000000000;filter:url(#filter3832)"
         transform="matrix(0.88,0,0,0.88,15.36,110.92345)">
        <path
           id="path3820"
           transform="translate(0,796.36218)"
           d="M 128,3 C 58.964407,3 3,58.964405 3,128 c 0,1.02632 0.00665,2.0421 0.03125,3.0625 0.00125,0.0521 -0.00132,0.10421 0,0.15625 C 3.0281904,131.28244 3,131.34165 3,131.40625 l 0,118.1875 C 3,251.47591 4.3033014,253 5.9375,253 l 119.125,0 c 0.0862,0 0.16573,-0.023 0.25,-0.0312 C 126.20862,252.9878 127.09934,253 128,253 197.03559,253 253,197.0356 253,128 253,58.964405 197.03559,3 128,3 z"
           style="fill:#008ba0;fill-opacity:1;fill-rule:nonzero;stroke:none"
           inkscape:connector-curvature="0" />
        <path
           inkscape:connector-curvature="0"
           style="fill:#008ba0;fill-opacity:1;fill-rule:nonzero;stroke:none"
           d="m 128,1049.3622 c 69.03559,0 125,-55.96442 125,-125.00002 0,-1.02632 -0.007,-2.0421 -0.0312,-3.0625 -10e-4,-0.0521 0.001,-0.10421 0,-0.15625 0.003,-0.0637 0.0312,-0.1229 0.0312,-0.1875 l 0,-118.1875 c 0,-1.88216 -1.3033,-3.40625 -2.9375,-3.40625 l -119.125,0 c -0.0862,0 -0.16573,0.023 -0.25,0.0312 -0.89612,-0.019 -1.78684,-0.0312 -2.6875,-0.0312 -69.03559,0 -125,55.9644 -125,125 0,69.0356 55.96441,125.00002 125,125.00002 z"
           id="path3822" />
      </g>
      <text
         transform="matrix(0.8660254,-0.5,0.5,0.8660254,0,0)"
         sodipodi:linespacing="125%"
         id="text3932"
         y="890.24896"
         x="-473.00534"
         style="font-size:85.19155884px;font-style:normal;font-weight:normal;line-height:125%;letter-spacing:0px;word-spacing:0px;fill:#000000;fill-opacity:1;stroke:none;font-family:Sans"
         xml:space="preserve"><tspan
           style="font-style:italic;font-variant:normal;font-weight:bold;font-stretch:normal;fill:#ff0000;font-family:BatmanForeverAlternate;-inkscape-font-specification:BatmanForeverAlternate Bold Italic"
           y="890.24896"
           x="-473.00534"
           id="tspan3934"
           sodipodi:role="line">1337</tspan></text>
    </g>
  </g>
</svg>
